<svg xmlns="http://www.w3.org/2000/svg" enable-background="new 0 0 509.995 510" viewBox="0 0 509.995 510" id="Premium"><path d="M500.753 285.523c-12.882-16.104-35.898-20.482-53.778-10.322L267.358 354.15c-.359.157-.709.336-1.047.535-5.91 3.477-12.659 5.314-19.517 5.314h-64.09C170.186 360 160 349.814 160 337.295c0-10.912 7.744-20.258 18.442-22.302l78.452-10.639c.148-.021.297-.044.444-.07C276.264 300.843 290 284.385 290 265.149c0-11.715-5.127-22.778-14.065-30.35-8.79-7.445-20.298-10.702-31.667-8.978l-75.952 4.193c-.366.021-.731.061-1.093.121-7.014 1.169-13.722 3.513-19.937 6.965-.221.123-.437.254-.648.393L80 281.429V250c0-5.523-4.477-10-10-10H10c-5.523 0-10 4.477-10 10v250c0 5.522 4.477 10 10 10h60c5.523 0 10-4.478 10-10v-20h135.52c11.195 0 22.134-3.094 31.665-8.95l242.215-122.972c.264-.135.521-.28.772-.438 10.199-6.374 17.207-16.83 19.226-28.686C511.417 307.1 508.267 294.913 500.753 285.523zM60 490H20V260h40v39.889c0 .006 0 .012 0 .019V490zM489.682 315.597c-1.055 6.193-4.518 11.457-9.769 14.867L237.752 453.408c-.264.135-.522.28-.773.438-6.442 4.026-13.862 6.154-21.459 6.154H80V305.385l77.313-50.973c3.971-2.163 8.233-3.661 12.684-4.459l75.883-4.189c.366-.021.731-.061 1.093-.121 5.745-.956 11.59.653 16.034 4.417 4.444 3.765 6.993 9.265 6.993 15.09 0 9.496-6.733 17.632-16.04 19.42l-78.449 10.639c-.149.021-.297.044-.445.07C154.747 298.973 140 316.643 140 337.295 140 360.843 159.157 380 182.705 380h64.09c10.215 0 20.271-2.684 29.125-7.767l179.604-78.944c.359-.157.709-.336 1.047-.535 9.441-5.553 21.723-3.292 28.565 5.263C489.145 303.027 490.759 309.271 489.682 315.597zM260 150.71V190c0 5.523 4.478 10 10 10h200c5.522 0 10-4.477 10-10v-39.643l9.975-139.645c.308-4.305-2.182-8.321-6.173-9.961-3.993-1.641-8.586-.534-11.395 2.741l-51.69 60.306L378.138 4.188C376.26 1.56 373.229 0 370 0s-6.26 1.56-8.138 4.188l-43.139 60.395L257.071 2.929c-3.044-3.043-7.693-3.798-11.543-1.873-3.85 1.925-6.036 6.098-5.427 10.358L260 150.71zM312.929 87.071c2.079 2.079 4.963 3.141 7.896 2.895 2.929-.242 5.604-1.761 7.313-4.153L370 27.205l41.862 58.608c1.787 2.501 4.625 4.042 7.696 4.178 3.049.132 6.033-1.148 8.034-3.482l40.273-46.985L460.688 140H420c-5.522 0-10 4.477-10 10s4.478 10 10 10h40v20H280v-20h40c5.522 0 10-4.477 10-10s-4.478-10-10-10h-41.327l-14.53-101.716L312.929 87.071z" fill="#ffa805" class="color000000 svgShape"></path><path d="M370,160c2.63,0,5.21-1.07,7.069-2.93c1.86-1.86,2.931-4.44,2.931-7.07c0-2.63-1.07-5.21-2.931-7.07
			C375.21,141.07,372.63,140,370,140s-5.21,1.07-7.07,2.93c-1.86,1.86-2.93,4.44-2.93,7.07c0,2.63,1.069,5.21,2.93,7.07
			S367.37,160,370,160z" fill="#ffa805" class="color000000 svgShape"></path></svg>