<svg xmlns="http://www.w3.org/2000/svg" viewBox="0 0 64 64" id="Sustainability"><path d="M32,40a1,1,0,0,1-.49-.13c-.23-.13-5.58-3.18-5.58-8.87s5.35-8.75,5.58-8.87a1,1,0,0,1,1,0c.23.13,5.58,3.18,5.58,8.87s-5.35,8.75-5.58,8.87A1,1,0,0,1,32,40Zm0-15.81c-1.17.82-4.06,3.2-4.06,6.81s2.89,6,4.06,6.81c1.17-.82,4.06-3.2,4.06-6.81S33.18,25,32,24.19Z" fill="#ffa805" class="color000000 svgShape"></path><rect width="2" height="13" x="31" y="29" fill="#ffa805" class="color000000 svgShape"></rect><path d="M32 30a1 1 0 01-.71-.29l-2-2 1.41-1.41L32 27.59l1.29-1.29 1.41 1.41-2 2A1 1 0 0132 30zM32 36a1 1 0 01-.71-.29l-3-3 1.41-1.41L32 33.59l2.29-2.29 1.41 1.41-3 3A1 1 0 0132 36zM45 20H34a1 1 0 01-.71-1.71L34.59 17 32 14.41l-5.29 5.29a1 1 0 01-1.41 0l-7-7a1 1 0 010-1.41l6-6A1 1 0 0125 5H39a1 1 0 01.71.29L43 8.59l1.29-1.29A1 1 0 0146 8V19A1 1 0 0145 20zm-8.59-2H44V10.41l-.29.29a1 1 0 01-1.41 0L38.59 7H27.41l9.29 9.29a1 1 0 010 1.41zm-16-6L26 17.59 30.59 13 25 7.41zM56 46H45a1 1 0 01-1-1V34a1 1 0 011.71-.71L47 34.59 49.59 32l-5.29-5.29a1 1 0 010-1.41l7-7a1 1 0 011.41 0l6 6A1 1 0 0159 25V39a1 1 0 01-.29.71L55.41 43l1.29 1.29A1 1 0 0156 46zM46 44h7.59l-.29-.29a1 1 0 010-1.41L57 38.59V27.41l-9.29 9.29a1 1 0 01-1.41 0L46 36.41zm.41-18L51 30.59 56.59 25 52 20.41zM39 59H25a1 1 0 01-.71-.29L21 55.41l-1.29 1.29A1 1 0 0118 56V45a1 1 0 011-1H30a1 1 0 01.71 1.71L29.41 47 32 49.59l5.29-5.29a1 1 0 011.41 0l7 7a1 1 0 010 1.41l-6 6A1 1 0 0139 59zM25.41 57H36.59l-9.29-9.29a1 1 0 010-1.41l.29-.29H20v7.59l.29-.29a1 1 0 011.41 0zm8-6L39 56.59 43.59 52 38 46.41zM12 46a1 1 0 01-.71-.29l-6-6A1 1 0 015 39V25a1 1 0 01.29-.71L8.59 21 7.29 19.71A1 1 0 018 18H19a1 1 0 011 1V30a1 1 0 01-1.71.71L17 29.41 14.41 32l5.29 5.29a1 1 0 010 1.41l-7 7A1 1 0 0112 46zM7.41 39L12 43.59 17.59 38 13 33.41zM7 25.41V36.59l9.29-9.29a1 1 0 011.41 0l.29.29V20H10.41l.29.29a1 1 0 010 1.41z" fill="#ffa805" class="color000000 svgShape"></path></svg>